<?xml version="1.0" encoding="UTF-8"?>
<svg id="Layer_2" data-name="Layer 2" xmlns="http://www.w3.org/2000/svg" viewBox="0 0 873.42 228.83">
  <g id="Layer_1-2" data-name="Layer 1">
    <g>
      <path d="M97.05,162.45c3.47,1.06,5.79-1.43,8.91-1.89,2.67,2.55-10.3,7.34-13.25,6.81-7.7-1.37-4.3-16.19-3.28-21.8,2.43-13.37,8.18-30.24,12.52-43.34,7.61-22.97,17.27-45.29,25.92-67.87l-1.88-1.37-67.03,105.14c-3.2,2.19-5.47-1.17-5.69-4.1-.9-11.68,7.55-41.09,9.69-54.71.09-.59.29-1.62-.49-1.47-5.48,5.28-9.73,11.7-13.92,18.02-10.47,15.79-21.96,34.88-29.76,52.07-4.19,9.23-9.68,29.02-14.96,35.92-2,2.62-4.48,2.76-3.68-.67s4.18-6.1,5.7-9.28c14.94-31.3,26.04-64.02,49.15-91.55,3.66-4.37,10.75-13.96,14.94-4.99l-7.47,51.3c19.57-32.09,40.29-63.43,60.68-95.01,3.67-6.33,13.2-10.42,11.6.58-1.73,11.9-14.75,37.26-19.52,50.33-3.39,9.29-6.83,18.72-9.75,28.16-4.76,15.42-11.38,33.8-8.42,49.74Z"/>
      <path d="M614.97.08c-1.66,8.24-4.03,2-4.43,2.04-6.78.53-46.45,25.11-52.07,30.85-2.73,2.79-2.54,5.94.03,8.94,7.61,8.87,43.01-2.01,58.45,12.5,6.98,6.55,11.1,15.83,7.19,25.08-5.77,13.61-48.99,46.14-63.4,50.44-11.73,3.5-23.17.83-22.77-13.24,2.85,1.92,2.63,5.82,4.98,8.48,3.64,4.13,9.14,4.05,14.27,3.24,14.94-2.36,52.59-34.37,58.23-48.61,6.45-16.3-.13-29.2-18.01-30.87-10.53-.98-38.84,1.81-46.06-6.93-1.66-2.01-1.72-2.35-.68-4.77,2.49-5.82,33.83-25.21,40.95-28.99s14.73-8.96,23.31-8.16Z"/>
      <path d="M251.96,66.88c1.81,2.14-5.47,3.19-6.22,3.28-4.96.62-2.21-4.94.95-5.14,1.01-.06,5,1.54,5.27,1.86Z"/>
      <path d="M840.97,27.99c-2.19,9.21-14.38,3.29-5.84.65,1.91-.59,3.84-.81,5.84-.65Z"/>
      <path d="M865.44,92.84c.97-2.96,12.39-13.57,6.09-16.61-5.95-2.87-16.26,5.22-21.07,8.56.97-3.61-5.2-3.9-6.39-2.87-.19.17-.59,3.28-1.64,4.84-1.29,1.91-10.31,12.08-11.97,11.97-4.92-6.38-3.36-12.81-4.51-19.91-3.2,1.51-4.47-.65-6.53-1.01-1.53-.27-3.7,4.63-5.43,6.52-4.08,4.43-9.45,8.95-14.02,12.95-2.81,1.59-4.69-3.57-3.76-6.75,1.25-4.32,12.58-14.17,16.85-16.12,1.12-.51,3.44.63,3.89-1.08,1.95-7.34-15.45-1.04-18.59-.59-4.97.71-11.26.5-16.4,1.09l26.99-56.8c-2.75-2.7-13.49,12.52-14.8,14.64-2.55,4.15-5.35,10.08-7.37,14.58-1.66,3.71-9.53,26.41-10.79,27.16-4.68,2.77-10.15-11.21-13.96-8.47-.2.14-2.03,4.2-2.08,4.44-.1.49,1.64.33,1.94,1.21.87,2.58.97,6.13,1.76,9.03,2.1,7.66,5.23,6.82-3.2,14.14-1.86-.05-13.52-24.44-17.1-12.96-.68,2.18.66,3.97-.31,5.53-1.46,2.37-12.39,12.09-15.05,12.96-5.74,1.88-4.06.03-5.42-2.15-.28-.45-1.68-.38-1.68-.91,0-.49,5.06-9.54-1.41-7.41-2.29.75-4.33,13.46-9.04,13.91-1.01-2.65,7.39-14.88,8.97-16.05,1.56-1.15,3.72.49,5.53.1.3-7.65-2.7-3.95-6.77-3.25-6.32,1.08-15.41,2.84-21.68,2.21-2.43-.24-3.44-2.56-6.26-1.24-5.22,2.44.28,6.1-1.02,9.94-.56,1.67-6.24,11.2-7.27,6.76-.36-1.54,2.19-15.58,2.93-17.96,2.22-7.12,8.24-13.92,11.25-20.68,3.82-8.57,8.71-28,9.52-37.23.24-2.71-1.08-4.35-3.73-2.86-3.26,1.83-16.25,30.71-18.01,35.88-6.84,20.1-4.52,38.09-24.65,51.18-1.72,1.12-11.34,6.51-12.33,5.72-4.97-6.44,2.63-7.6,6.57-11.47,4.13-4.06,11.54-12.98,3.73-16.75-9.64-4.65-15.66,2.33-18.75,10.75-1.26,3.44-2.23,14.07-2.67,14.77-.27.43-3.46,1.31-4.23,1.21-.68-.09-.55-1.94-1.26-2.09-2.39-.5-7.19,1.36-6.35,4.51.95,3.56,11.51-1.64,12.4-1.42,1.19.29,1.92,3.73,4.57,4.53,7.85,2.39,30.9-13.74,33.04-22.53l.48,8.97c11.95,8.13,15.84-13.28,21.81-16.64,2.25-1.27,14.48-2.01,18.19-2.33.62-.05,1.65-.27,1.5.51-2.82,2.4-14.88,17.55-11.99,20.43,2.05,2.04,7.98-4.59,10.66-4.77,1.58-.11,2.75,1.45,4.62,1.5,9.51.26,19.2-10.25,26.08-15.59,2.66,2.67,9.7,7.31,9.62,11.41-.12,6.45-19.8,8.36-15.1,13.98,4.49,5.37,11.73-5.95,14.59-8.54,1.77-1.61,5.82-2.28,7.57-5.41,1.66-2.96.98-8.11,4.96-10.08,2.69-1.33,4.24,5.92,9.56-.38,3.07-3.64,2.21-9.85,5.42-13.6,4.28.32,9.06.05,13.39-.54,4.87-.67,10.12-2.57,14.62-2.37-6.64,3.68-23.48,19.91-20.87,27.73,2.21,6.61,14.35-3.97,14.87-3.31-1.39,3.83-1.99,12.46,4.32,10.84,1.88-.48,9.23-11.83,10.19-11.82,5.98,9.82,10.69,2.78,15.03,3.3,1.25.15,2.85,3.75,5.46,2.66,2.19-12.08,16.49-18.56,26.49-23.92,2.33.34-.13,6.97-.69,8.27-1.08,2.55-6.66,9.7-6.52,11.18.18,1.93,2.54,2.59,4.42,1.75,4.98-2.24,1.8-4.18,2.78-7.17ZM687.22,69.6c1.31-8.24,6.19-22.46,9.87-30.04.78-1.6,2.29-4.8,3.87-5.6-1.23,13.93-6.47,26.72-13,38.86-1.8.24-.91-2.17-.74-3.23ZM656.52,89.73c5.23,4.58-8.41,15.58-12.54,17.99-2.86-7.07,2.08-27.16,12.54-17.99ZM767.98,84.79l-3.01-9.96,9.99.99c.9,2.32-6.46,9.35-6.98,8.96ZM809.97,100.74c-1.39-8.55,4.84-15.13,10.98-19.93-.49,7.35-3.49,17.09-10.98,19.93Z"/>
      <path d="M315.96,123.16c-3.23,10.56-19.67,23.28-30.59,18.55-8.06-3.49-3.25-25.47-6.49-30.41-2.6-3.96-4.46.76-6.18,1.68-5.18,2.8-11.11,4.27-16.11,6.82-13.12,6.72-20.59,19.95-31.61,29.29-1.66,1.41-10.44,8.57-12,7.46-2.42-9.54,3.69-22.13,10.48-28.91,2.72-2.72,12.2-7.2,4.03-8.03-8.25-.84-37.36,13.02-41.52,10.03,1.2-3.62,3.31-7.81,3.91-11.54,1.03-6.34-2.86-2.55-4.74.26-2.25,3.36-3,7.51-4.98,10.98-4.72,8.26-16.56,26.29-27.62,24.29-1-4.96-3.63-9.76-3.99-14.86-.48-6.88,2.05-9.76-1.27-16.3-.32-.63,2.03-4.91-3.64-3.78-.61.12-.69,1.47-1.48,1.87-9.55,4.83-14.1,8.78-19.6,18.13-2.75,4.68-11.92,24.21-5.59,27.33,8.66,4.27,20.53-14.11,22.02-21.42l3.96,9.49c4.7,6.59,13.09,3.18,18.96-.09,5.16-2.88,8.32-8.06,13.05-11.4.15,4.13-10.16,19.37.37,15.81,2.46-.83,1.3-4.67,2.11-6.87,2.33-6.31,6.98-12.55,7.63-19.8,13.75,1.58,25.83-7.98,38.9-8.58-6.89,4.51-22.63,28.17-19.53,35.34,3.85,8.89,19.52-4.89,23.54-8.41,12.41-10.88,20.34-26.4,37.49-31.4,1.63,1.01-.35,2.2-1,2.99-5.76,6.95-18.98,24.16-17.52,33.33,1.88,11.81,15.2-5.23,16.5-9.42l7.5-18.92c-3.46,27.88,30.35,21.29,42.01,6.47,1.44-1.83,7.35-10.19,2.99-9.98ZM124.59,161.49c-4.31-2.25-1.91-7.74-.91-11.69,2.16-8.48,7.46-23.5,17.27-24.14,3.68,6.18-11.3,36.68-16.37,35.83ZM254.98,152.58c-.47-10.57,6.47-22.72,13.98-29.9-3.4,10.04-5.98,22.44-13.98,29.9Z"/>
      <path d="M496.59,107.85c-10.47,1.69-21.21,5.47-30.65,10.32-7.19,3.69-13.51,9.24-20.98,12.47,2.54-4.46,6.14-8.27,8.82-12.62,2.31-3.75.79-7.55,7.14-7.35l-.44-3.96c-3.33-3.09-4.09,1.35-6.17,2.87-5.08,3.71-11.34,6.39-16.02,10.94-4.42,2.23-.04-6.35.63-7.34.87-1.29,7.95-8.19,9.5-9.46,1.61-1.32,11.94-3.05,7.28-6.74-2.76-2.19-17.02,3.72-21.32,4.7-3.08.7-14.31,3.37-16.35,1.98-.61-.41-.19-3.1-.69-3.93-4.58-7.53-18.87,7.94-21.8,12.07-3.46,4.89-8.9,12.67-4.48,18.24,2.49,3.14,8.03.75,11.42-.36,11.99-3.92,13.2-11.16,12.46-22.96,11.04.11,21.5-3.14,32.01-5.97-4.93,5.04-11.05,9.48-15.57,14.9-1.06,1.27-1.06,2.6-1.77,3.71-.58.89-2.71.72-2.73,2.8-.02,3.03,6.33,6.91,7.89,2.63l12.17-6.6c-6.26,6.89-11.1,18.12-17.45,24.47-22.98,22.98-47.92,33.3-66.96,63.83-1.85,2.96-11.43,20-9.58,21.84,3.15,3.14,11.57-9.17,13.46-10.99,14.14-13.66,29.19-26.81,42.56-41.31,19.46-21.09,27.18-38.4,53.67-53.16,7.97-4.44,17.22-8.68,26.1-10.87,5.75-1.42,11.97-1.15,17.19-3.78l-9.35-.37ZM399.57,127.59c-5.71-4.11,5.63-24.11,8.89-24.57.56-.08,1.71.59,2.21,1.03,7.04,6.2-.43,24.62-11.1,23.54ZM356.98,223.34c11.25-27.81,36.23-49.62,59.51-67.75,1.01-.79,5.69-4.71,6.47-4-19.03,26.56-43.62,48.15-65.99,71.76Z"/>
    </g>
  </g>
</svg>