<?xml version="1.0" encoding="UTF-8"?>
<svg id="Layer_2" data-name="Layer 2" xmlns="http://www.w3.org/2000/svg" xmlns:xlink="http://www.w3.org/1999/xlink" viewBox="0 0 853.27 853.27">
  <defs>
    <style>
      .cls-1 {
        fill: none;
      }

      .cls-2 {
        fill: #5b7b3a;
      }

      .cls-3 {
        fill: #f6d069;
      }

      .cls-4 {
        fill: #f27983;
      }

      .cls-5 {
        fill: #fce2b9;
      }

      .cls-6 {
        fill: #2f421f;
      }

      .cls-7 {
        clip-path: url(#clippath);
      }
    </style>
    <clipPath id="clippath">
      <circle class="cls-1" cx="426.64" cy="426.64" r="426.64"/>
    </clipPath>
  </defs>
  <g id="Layer_1-2" data-name="Layer 1">
    <g class="cls-7">
      <rect class="cls-5" x="-193.59" y="-27.1" width="1122.82" height="987.13"/>
      <g>
        <path class="cls-4" d="M128.37,552.62c1.4-3.11,9.94-12.67,13.84-11.88,6.09,1.24,11.97,16.86,12.23,22.71,1.12,1.43,5.16-2.49,6.58-3.16,4.4-2.08,12.68-5.25,17.05-2.22,3.82,2.65,2.59,18.49.43,22.51.75,1.56,31.76-4.99,25.72,12.03-.67,1.88-4.5,8.43-5.77,9.87,16.51-7.14,33.8-20.43,43.74-35.6,19.19-29.3-9.93-25.38-30.05-24.22,2.51-5.74,5.85-28.85.17-32.7-5.84-3.96-17.34,1.3-22.93,4.16-1.57.8-8.28,6.06-9.37,5.41-2.17-8.45-6.06-27.36-14.63-31.33-8.37-3.87-20.04,14.08-23.47,20.16-7.31,12.94-12.8,29.42-13.53,44.28Z"/>
        <path class="cls-3" d="M128.37,552.62c-5.3,11.76,3.92,39.22,13.57,47.62.69.6,6.29,4.4,7.14,4.85,10.51,5.61,24.01,5.64,35.43,2.88,2.72-.66,12.45-3.79,13.94-5.5,1.26-1.44,5.1-7.99,5.77-9.87,6.04-17.03-24.97-10.48-25.72-12.03,2.16-4.02,3.39-19.85-.43-22.51-4.37-3.03-12.65.14-17.05,2.22-1.42.67-5.46,4.59-6.58,3.16-.26-5.85-6.14-21.47-12.23-22.71-3.89-.79-12.44,8.78-13.84,11.88Z"/>
        <path class="cls-6" d="M141.94,600.24c-31.72,28.33-58.54,62.78-71.01,104.13.31,2.33.39,12.23-.15,14.25-.52,1.96-2.91.52-4.33-.06-7.91,32.28-16.37,64.45-29.2,95.23-5.56,13.33-12.41,26.16-18.52,39.23-1.19,5.04,5.29,7.08,8.24,3.06,4.88-6.63,12.61-25.19,16.17-33.51,13.96-32.59,20.81-62.52,30.32-96.13,3.03-10.73,7.04-21.24,10.12-31.95-.85-.2-4.06-.98-3.82-1.65,3.55-4.92,7.53-11.63,11.91-15.73,13.43-28.14,35.36-50.63,57.41-72.02-.85-.45-6.45-4.25-7.14-4.85Z"/>
        <path class="cls-2" d="M70.93,704.37c-2.33-17.71-18.19-40.23-36.4-43.98-3.27,22.41,10.74,49.45,31.92,58.17,1.42.58,3.81,2.03,4.33.06.54-2.02.45-11.92.15-14.25Z"/>
        <path class="cls-2" d="M91.66,677.12c-4.39,4.1-8.36,10.81-11.91,15.73-.23.68,2.97,1.46,3.82,1.65,21.89,5.01,50.66-9.04,59.65-29.7-11.45-4.13-26.04-1.93-36.96,3.04-3.92,1.79-11.56,6.43-14.61,9.28Z"/>
      </g>
      <g>
        <path class="cls-4" d="M-15.5,496.65c.62-2.54,5.74-10.98,8.79-10.93,4.78.08,11.42,11.06,12.43,15.45,1.04.93,3.55-2.61,4.53-3.31,3.03-2.19,8.85-5.75,12.57-4.07,3.26,1.47,4.55,13.61,3.49,16.95.78,1.07,23.31-8.24,21.13,5.49-.24,1.51-2.22,7-2.97,8.27,11.48-7.71,22.69-20.19,28.07-33.06,10.39-24.85-11.07-17.8-26.12-14.09,1.09-4.69.37-22.63-4.46-24.75-4.97-2.18-12.92,3.42-16.75,6.36-1.07.82-5.41,5.75-6.32,5.4-2.82-6.08-8.43-19.83-15.46-21.63-6.87-1.75-13.17,13.46-14.91,18.54-3.71,10.81-5.55,24.04-4.01,35.37Z"/>
        <path class="cls-3" d="M-15.5,496.65c-2.36,9.63,8.47,29.1,16.95,34.1.61.36,5.37,2.44,6.08,2.67,8.73,2.76,18.94.89,27.19-2.8,1.96-.88,8.88-4.62,9.77-6.11.75-1.27,2.73-6.76,2.97-8.27,2.18-13.72-20.35-4.41-21.13-5.49,1.07-3.34-.23-15.48-3.49-16.95-3.73-1.68-9.54,1.88-12.57,4.07-.98.71-3.48,4.24-4.53,3.31-1.02-4.39-7.66-15.37-12.43-15.45-3.05-.05-8.17,8.38-8.79,10.93Z"/>
        <path class="cls-6" d="M1.45,530.75c-20,25.87-35.44,55.68-39.06,88.69.56,1.72,2.01,9.19,1.89,10.8-.12,1.56-2.13.8-3.28.56-1.45,25.51-3.33,51.02-8.7,76.09-2.33,10.86-5.71,21.52-8.5,32.26-.19,3.98,4.99,4.61,6.66,1.16,2.76-5.7,6-20.81,7.52-27.6,5.98-26.6,6.95-50.19,9.42-76.93.79-8.54,2.34-17.04,3.16-25.57-.67-.03-3.21-.17-3.12-.71,2-4.22,4.06-9.85,6.8-13.56,6.2-23.16,19.62-43.24,33.29-62.51-.71-.22-5.47-2.31-6.08-2.67Z"/>
        <path class="cls-2" d="M-25.76,595.92c-2.74,3.72-4.8,9.35-6.8,13.56-.08.54,2.45.68,3.12.71,17.26.71,37.03-13.95,40.92-30.83-9.24-1.51-19.96,2.2-27.51,7.49-2.72,1.9-7.83,6.48-9.74,9.07Z"/>
      </g>
      <g>
        <path class="cls-4" d="M127.11,395.09c.71-4.79-2.15-22.79-7.41-24.84-8.23-3.21-27.26,10.95-32.07,17.75-2.43.85-4.25-6.94-5.43-8.83-3.66-5.87-11.12-16.02-18.67-15.75-6.6.24-17.3,20.11-17.81,26.57-2.09,1.29-34.12-30.38-39.99-5.38-.65,2.76-1.09,13.54-.69,16.23-14.25-21.22-24.7-50.4-24.92-76.17-.42-49.78,31.38-22.71,54.54-5.86,1.41-8.79,15.19-38.98,24.93-39.22,10.02-.25,19.72,14.88,24.22,22.59,1.26,2.16,5.24,13.61,7.04,13.66,9.08-8.44,28.28-28.05,41.56-26.21s13.13,32.23,12.56,42.14c-1.21,21.08-7.3,45.01-17.85,63.33Z"/>
        <path class="cls-3" d="M127.11,395.09c-2.7,18.13-34.82,43.87-52.82,46.5-1.29.19-10.89.43-12.26.32-16.88-1.37-33.03-11.71-44.56-23.78-2.74-2.87-11.96-14.1-12.44-17.29-.4-2.69.05-13.47.69-16.23,5.87-25,37.9,6.67,39.99,5.38.51-6.46,11.21-26.33,17.81-26.57,7.55-.27,15.01,9.88,18.67,15.75,1.18,1.89,3,9.68,5.43,8.83,4.81-6.8,23.84-20.95,32.07-17.75,5.26,2.05,8.12,20.05,7.41,24.84Z"/>
        <path class="cls-6" d="M74.29,441.59c16.15,58.24,21.72,120.02,4.85,179.05-2.16,2.55-9.87,14.32-10.78,17.15s3.08,2.86,5.23,3.25c-15.34,44.66-29.96,89.62-38.28,136.27-3.6,20.2-5.27,40.81-8.01,61.13-2.46,6.93-11.76,4.4-12.21-2.67-.73-11.67,4.28-39.8,6.42-52.48,8.36-49.69,23.17-90.73,37.64-138.21,4.62-15.16,7.91-30.79,12.45-45.96,1.17.42,5.6,1.95,5.84.96-.47-8.61-.06-19.69-2.15-27.96,5.58-43.96-3.35-87.69-13.27-130.21,1.37.11,10.97-.13,12.26-.32Z"/>
        <path class="cls-2" d="M79.14,620.64c16.4-19.38,52.67-34.11,77.31-24.6-13.32,29.3-50.84,50.86-82.86,45-2.15-.39-6.12-.51-5.23-3.25s8.62-14.6,10.78-17.15Z"/>
        <path class="cls-2" d="M75.3,572.11c2.09,8.27,1.68,19.35,2.15,27.96-.24.99-4.67-.54-5.84-.96-30.02-10.84-53.6-49.74-48.48-81.35,16.86,3.87,32.61,17.7,41.84,32.04,3.32,5.15,8.87,16.56,10.33,22.32Z"/>
      </g>
      <g>
        <path class="cls-4" d="M271.62,517.48c6.05-1.41,29.36.36,32.52,6.88,4.96,10.19-11.15,35.99-19.34,42.84-.84,3.2,9.32,4.71,11.85,6.02,7.88,4.06,21.64,12.54,22.08,22.22.39,8.46-23.9,24.21-32.1,25.54-1.43,2.81,42.38,40.44,11.05,50.55-3.46,1.11-17.19,2.81-20.67,2.58,28.61,16,67,26.31,99.96,23.91,63.67-4.65,25.75-42.47,1.8-70.31,11.09-2.72,48.23-23.48,47.53-35.96-.72-12.84-21.08-23.66-31.4-28.59-2.89-1.38-17.94-5.27-18.19-7.58,9.83-12.49,32.9-39.07,29.16-55.85-3.65-16.4-42.56-13.42-55.17-11.66-26.82,3.75-56.76,14.03-79.07,29.42Z"/>
        <path class="cls-3" d="M271.62,517.48c-22.89,5.34-52.43,49.08-53.92,72.36-.11,1.67.59,13.97.87,15.7,3.52,21.43,18.41,41,35.05,54.47,3.96,3.21,19.27,13.82,23.39,14.09,3.48.23,17.21-1.46,20.67-2.58,31.34-10.11-12.48-47.74-11.05-50.55,8.2-1.33,32.49-17.07,32.1-25.54-.44-9.68-14.2-18.16-22.08-22.22-2.54-1.31-12.69-2.82-11.85-6.02,8.19-6.86,24.29-32.66,19.34-42.84-3.17-6.51-26.48-8.29-32.52-6.88Z"/>
        <path class="cls-6" d="M217.7,589.84c-76.12-14.56-155.67-15.24-229.35,12.48-3.04,3.03-17.27,14.1-20.79,15.57s-3.98-3.64-4.7-6.34c-55.48,24.27-111.41,47.64-170.17,63.14-25.44,6.71-51.61,10.99-77.3,16.61-8.61,3.86-4.4,15.49,4.69,15.32,14.99-.28,50.43-9.63,66.4-13.68,62.63-15.87,113.55-39.08,172.72-62.53,18.89-7.48,38.53-13.32,57.45-20.71-.66-1.45-3.08-6.96-1.84-7.37,11.05-.3,25.17-1.98,35.96-.17,55.6-11.72,112.43-4.87,167.81,3.37-.28-1.73-.98-14.04-.87-15.7Z"/>
        <path class="cls-2" d="M50.77,602.17c-10.79-1.81-24.9-.13-35.96.17-1.24.41,1.18,5.92,1.84,7.37,16.99,37.24,69.16,63.32,109.03,53.47-6.71-21.15-26.03-39.83-45.31-50.13-6.93-3.7-22.1-9.61-29.6-10.87Z"/>
      </g>
      <g>
        <path class="cls-4" d="M242.4,483.77c2.8-1.94,10.66-12.08,9.18-15.77-2.32-5.77-18.75-8.71-24.55-7.91-1.61-.84,1.51-5.52,1.91-7.04,1.25-4.7,2.86-13.42-.91-17.16-3.3-3.27-18.65.81-22.21,3.66-1.67-.45-.85-32.14-16.5-23.11-1.73,1-7.47,5.96-8.66,7.46,4.02-17.53,13.96-36.95,27.07-49.47,25.33-24.19,26.77,5.16,29.27,25.15,5.19-3.51,27.31-10.98,32.13-6.1,4.96,5.02,1.86,17.29.07,23.3-.5,1.69-4.46,9.24-3.62,10.19,8.7.6,28.01,1,33.46,8.7s-10.21,22.26-15.57,26.74c-11.4,9.53-26.61,17.93-41.08,21.35Z"/>
        <path class="cls-3" d="M242.4,483.77c-10.6,7.35-39.28,3.27-49.29-4.7-.72-.57-5.47-5.38-6.07-6.14-7.42-9.32-9.9-22.59-9.26-34.32.15-2.79,1.47-12.93,2.88-14.71,1.19-1.5,6.93-6.47,8.66-7.46,15.65-9.03,14.83,22.65,16.5,23.11,3.56-2.85,18.91-6.93,22.21-3.66,3.78,3.74,2.16,12.46.91,17.16-.4,1.52-3.52,6.2-1.91,7.04,5.8-.81,22.23,2.14,24.55,7.91,1.48,3.69-6.38,13.82-9.18,15.77Z"/>
        <path class="cls-6" d="M193.1,479.06c-22.1,36.34-51.11,68.96-89.52,88.73-2.35.12-12.1,1.84-13.99,2.73s.02,2.96.85,4.25c-30.3,13.64-60.41,27.79-88.34,46-12.1,7.88-23.47,16.96-35.22,25.34-4.74,2.08-7.92-3.91-4.51-7.55,5.63-6,22.48-16.97,30.01-21.98,29.52-19.64,57.71-31.81,89.03-47.26,10-4.93,19.61-10.78,29.58-15.75.35.8,1.7,3.81,2.32,3.46,4.19-4.39,10.07-9.51,13.31-14.57,25.24-18.31,43.37-43.96,60.41-69.53.6.75,5.35,5.57,6.07,6.14Z"/>
        <path class="cls-2" d="M103.58,567.8c17.84-.92,42.87,10.59,49.86,27.81-21.45,7.28-50.58-1.58-63-20.83-.83-1.29-2.68-3.38-.85-4.25s11.64-2.61,13.99-2.73Z"/>
        <path class="cls-2" d="M126.63,542.45c-3.24,5.06-9.11,10.18-13.31,14.57-.62.35-1.97-2.66-2.32-3.46-8.9-20.62-.3-51.46,18.38-64.05,6.14,10.51,6.62,25.26,3.72,36.89-1.05,4.18-4.22,12.53-6.47,16.05Z"/>
      </g>
      <g>
        <path class="cls-4" d="M722.21,557.08c-1.93-2.81-5.68-15.07-2.99-18,4.21-4.57,20.62-1.5,25.76,1.31,1.8-.21.54-5.7.71-7.26.5-4.84,2.08-13.56,6.94-15.73,4.25-1.89,17.15,7.37,19.47,11.3,1.72.17,12.19-29.75,23.62-15.75,1.26,1.54,4.87,8.22,5.45,10.05,2.45-17.82.05-39.5-7.77-55.86-15.11-31.6-26.85-4.67-36.29,13.14-3.6-5.12-21.64-19.95-27.88-17.1-6.41,2.94-7.87,15.5-8.33,21.76-.13,1.75.89,10.22-.23,10.81-8.35-2.53-26.54-9-34.37-3.73s1.65,24.43,5.07,30.53c7.28,12.96,18.52,26.2,30.84,34.53Z"/>
        <path class="cls-3" d="M722.21,557.08c7.31,10.63,35.57,16.98,47.76,13.08.87-.28,7.02-3.09,7.85-3.59,10.25-6.08,17.27-17.61,20.83-28.8.85-2.66,3.21-12.61,2.52-14.77-.58-1.83-4.19-8.5-5.45-10.05-11.43-13.99-21.9,15.92-23.62,15.75-2.32-3.93-15.22-13.19-19.47-11.3-4.86,2.16-6.44,10.89-6.94,15.73-.16,1.56,1.1,7.05-.71,7.26-5.14-2.81-21.55-5.88-25.76-1.31-2.69,2.92,1.06,15.19,2.99,18Z"/>
        <path class="cls-6" d="M769.97,570.16c7.78,41.81,23.34,82.6,52.23,114.71,2.15.95,10.66,6.01,12.11,7.51,1.41,1.46-1.07,2.76-2.3,3.67,23.5,23.5,46.62,47.41,66.29,74.33,8.52,11.66,15.94,24.18,23.95,36.18,3.69,3.63,8.8-.85,6.89-5.46-3.14-7.61-15-23.84-20.27-31.2-20.63-28.83-42.68-50.21-66.49-75.76-7.6-8.16-14.51-17.03-22.07-25.22-.61.63-2.94,2.96-3.4,2.41-2.36-5.59-6.04-12.46-7.28-18.34-17.11-26.07-24.97-56.48-31.83-86.43-.83.49-6.98,3.31-7.85,3.59Z"/>
        <path class="cls-2" d="M822.21,684.87c-16.36-7.19-43.84-5.3-56.48,8.33,17.47,14.41,47.85,16.45,66.29,2.86,1.24-.91,3.71-2.21,2.3-3.67-1.45-1.51-9.96-6.57-12.11-7.51Z"/>
        <path class="cls-2" d="M809.65,653c1.23,5.88,4.91,12.75,7.28,18.34.46.55,2.79-1.79,3.4-2.41,15.63-16.13,18.53-48.01,5.52-66.41-9.47,7.66-15.15,21.27-16.56,33.18-.51,4.28-.49,13.21.36,17.3Z"/>
      </g>
      <g>
        <path class="cls-4" d="M599.77,651.08c-1.85-1.85-6.41-10.6-4.79-13.18,2.54-4.05,15.38-4.03,19.66-2.62,1.33-.41-.39-4.39-.49-5.59-.3-3.73-.33-10.55,3.04-12.86,2.95-2.02,14,3.17,16.3,5.81,1.32-.11,5.04-24.2,15.65-15.23,1.17.99,4.84,5.53,5.53,6.83-.65-13.81-5.51-29.87-13.72-41.14-15.86-21.77-20.96.24-25.59,15.03-3.44-3.37-19.16-12.05-23.48-9.01-4.44,3.12-3.78,12.83-3.24,17.62.15,1.34,2.11,7.6,1.34,8.21-6.67-.74-21.33-3.08-26.51,2s4.68,18.24,8.12,22.36c7.32,8.77,17.68,17.21,28.17,21.77Z"/>
        <path class="cls-3" d="M599.77,651.08c7.02,7.01,29.27,7.84,37.94,3.18.62-.33,4.87-3.32,5.43-3.81,6.89-6.04,10.58-15.74,11.7-24.7.27-2.13.65-9.99-.17-11.52-.69-1.3-4.36-5.84-5.53-6.83-10.61-8.97-14.32,15.11-15.65,15.23-2.3-2.64-13.36-7.83-16.3-5.81-3.37,2.32-3.34,9.13-3.04,12.86.1,1.2,1.82,5.17.49,5.59-4.28-1.4-17.11-1.42-19.66,2.62-1.63,2.59,2.93,11.33,4.79,13.18Z"/>
        <path class="cls-6" d="M637.71,654.27c11.75,30.52,29.24,59.17,55.6,79.38,1.76.41,8.9,3.04,10.21,3.98s-.42,2.24-1.22,3.1c21.06,14.47,41.9,29.29,60.55,46.89,8.08,7.62,15.44,16.04,23.18,23.99,3.3,2.22,6.53-1.88,4.44-5.1-3.44-5.31-14.69-15.92-19.7-20.74-19.65-18.9-39.31-31.97-60.9-47.94-6.89-5.1-13.36-10.83-20.23-15.96-.37.56-1.81,2.65-2.23,2.3-2.57-3.89-6.32-8.57-8.08-12.84-16.59-17.31-26.81-39.19-36.2-60.87-.56.49-4.81,3.48-5.43,3.81Z"/>
        <path class="cls-2" d="M693.31,733.65c-13.38-3.14-33.88,2.15-41.53,14.23,15.23,8.44,38.48,5.72,50.52-7.15.81-.86,2.49-2.19,1.22-3.1s-8.45-3.57-10.21-3.98Z"/>
        <path class="cls-2" d="M679.34,711.32c1.76,4.27,5.5,8.95,8.08,12.84.42.35,1.86-1.74,2.23-2.3,9.55-14.39,7.27-38.89-5.15-50.98-6.08,7.12-8.47,18.2-7.86,27.41.22,3.31,1.48,10.06,2.7,13.03Z"/>
      </g>
      <g>
        <path class="cls-4" d="M586.86,476.49c-3.73-3.09-20.6-9.98-25.08-6.54-7.01,5.38-4.77,28.99-1.45,36.63-.53,2.52-8.14.04-10.37.07-6.91.09-19.46,1.2-23.15,7.8-3.22,5.77,8.23,25.22,13.49,29.01.02,2.46-43.67,13.43-25.33,31.41,2.02,1.98,11.01,7.95,13.52,9.01-25.53,1.18-55.91-5-78.06-18.18-42.79-25.45-3.16-38.61,23.26-49.67-6.79-5.76-25.46-33.19-20.62-41.65s22.95-9.15,31.87-9c2.5.04,14.36,2.58,15.33,1.06-2.5-12.14-9.33-38.72-.87-49.12,8.27-10.16,34.37,5.48,42.55,11.1,17.4,11.97,34.7,29.58,44.9,48.09Z"/>
        <path class="cls-3" d="M586.86,476.49c14.11,11.71,19.46,52.52,12.38,69.27-.51,1.2-5.28,9.54-6.08,10.65-9.92,13.72-27.14,22.18-43.44,25.77-3.88.86-18.26,2.92-21.23,1.67-2.51-1.05-11.5-7.02-13.52-9.01-18.33-17.98,25.35-28.95,25.33-31.41-5.26-3.78-16.71-23.24-13.49-29.01,3.68-6.6,16.23-7.71,23.15-7.8,2.23-.03,9.83,2.46,10.37-.07-3.32-7.64-5.56-31.25,1.45-36.63,4.48-3.44,21.36,3.45,25.08,6.54Z"/>
        <path class="cls-6" d="M599.23,545.76c58.18,16.39,113.9,43.65,155.63,88.67,1.06,3.17,7.13,15.86,9.08,18.11,1.89,2.18,4.04-1.15,5.49-2.78,30.24,36.28,61.1,72.08,96.68,103.38,15.41,13.55,32.17,25.66,48.13,38.54,4.66,5.69-2.33,12.34-8.61,9.05-10.36-5.42-31.82-24.3-41.55-32.69-38.15-32.91-65.57-66.85-98.68-103.84-10.57-11.81-22.23-22.72-32.85-34.48.97-.78,4.57-3.78,3.85-4.5-7.61-4.06-16.86-10.16-25.02-12.65-34.7-27.56-76.73-42.59-118.23-56.16.8-1.11,5.58-9.45,6.08-10.65Z"/>
        <path class="cls-2" d="M754.86,634.43c-8.07-24.07-1.86-62.72,19.04-78.87,18.15,26.58,17.14,69.84-4.48,94.19-1.45,1.63-3.6,4.97-5.49,2.78-1.94-2.25-8.01-14.94-9.08-18.11Z"/>
        <path class="cls-2" d="M711.37,612.56c8.16,2.5,17.42,8.59,25.02,12.65.72.72-2.89,3.71-3.85,4.5-24.83,20.05-70.32,20.05-94.7-.72,12.05-12.41,32.04-18.71,49.09-19.17,6.13-.17,18.77,1,24.44,2.74Z"/>
      </g>
      <g>
        <path class="cls-4" d="M766.43,416.36c1.93-5.9,15.53-24.91,22.74-24.25,11.28,1.04,24.99,28.19,26.61,38.74,2.3,2.37,8.86-5.52,11.29-7.02,7.56-4.63,21.94-12,30.45-7.36,7.44,4.06,8.31,32.99,5.2,40.69,1.66,2.68,56.56-15.28,48.95,16.76-.84,3.53-6.51,16.15-8.51,19.01,28.51-16.17,57.23-43.65,72.26-73.08,29.03-56.86-22.97-44.04-59.19-37.99,3.43-10.89,4.93-53.42-6.11-59.28-11.35-6.04-31.16,5.76-40.73,12.03-2.68,1.76-13.81,12.61-15.91,11.63-5.58-14.88-16.35-48.39-32.64-53.89-15.92-5.38-33.54,29.43-38.57,41.13-10.7,24.88-17.43,55.81-15.84,82.87Z"/>
        <path class="cls-3" d="M766.43,416.36c-7.3,22.35,14.79,70.28,33.93,83.62,1.37.95,12.25,6.74,13.88,7.39,20.15,8.1,44.6,5.51,64.75-1.73,4.79-1.72,21.81-9.32,24.18-12.7,2-2.86,7.67-15.48,8.51-19.01,7.6-32.04-47.29-14.08-48.95-16.76,3.12-7.7,2.24-36.63-5.2-40.69-8.51-4.64-22.89,2.73-30.45,7.36-2.44,1.49-8.99,9.39-11.29,7.02-1.62-10.56-15.33-37.7-26.61-38.74-7.21-.67-20.81,18.35-22.74,24.25Z"/>
        <path class="cls-6" d="M800.36,499.98c-51.92,57.55-93.74,125.22-108.23,202.59,1.01,4.16,3.11,22.08,2.53,25.85-.56,3.66-5.18,1.51-7.86.73-8.01,60.03-17.02,119.97-34.22,178.25-7.45,25.24-17.36,49.83-25.87,74.71-1.16,9.36,10.97,11.79,15.53,3.93,7.53-12.97,17.91-48.11,22.73-63.87,18.89-61.79,25.44-117.36,36.07-180.11,3.39-20.03,8.59-39.85,12.07-59.86-1.58-.19-7.54-.97-7.25-2.24,5.47-9.61,11.35-22.55,18.5-30.84,18.8-53.62,54.12-98.66,89.88-141.75-1.63-.66-12.51-6.44-13.88-7.39Z"/>
        <path class="cls-2" d="M724.36,649.12c-7.14,8.29-13.02,21.23-18.5,30.84-.29,1.27,5.67,2.06,7.25,2.24,40.65,4.77,90-26.32,102.25-65.52-21.56-5.23-47.55,1.61-66.36,12.76-6.76,4.01-19.68,13.91-24.65,19.68Z"/>
      </g>
      <g>
        <path class="cls-4" d="M722.45,423.87c-.21-3.4-4.8-15.38-8.72-16.02-6.13-1.01-17.17,11.52-19.49,16.9-1.55.94-3.94-4.16-5.03-5.29-3.38-3.5-9.99-9.41-15.15-8.12-4.51,1.13-8.98,16.37-8.38,20.89-1.25,1.19-27.92-15.93-28.31,2.13-.04,1.99,1.22,9.48,1.89,11.27-12.91-12.53-24.36-31.09-28.27-48.8-7.55-34.21,18.29-20.21,36.69-11.99-.31-6.26,4.77-29.05,11.44-30.64,6.86-1.64,15.75,7.37,19.97,12.02,1.18,1.3,5.59,8.61,6.84,8.38,5.02-7.13,15.37-23.44,24.78-24.11s13.74,20.27,14.8,27.18c2.24,14.69,1.54,32.05-3.04,46.2Z"/>
        <path class="cls-3" d="M722.45,423.87c.79,12.88-17.57,35.28-29.58,39.72-.86.32-7.44,1.88-8.39,2.01-11.82,1.52-24.45-3.24-34.15-9.87-2.31-1.58-10.29-7.96-11.08-10.08-.67-1.8-1.93-9.28-1.89-11.27.39-18.06,27.06-.94,28.31-2.13-.59-4.52,3.87-19.76,8.38-20.89,5.16-1.29,11.78,4.61,15.15,8.12,1.09,1.13,3.48,6.23,5.03,5.29,2.32-5.38,13.36-17.9,19.49-16.9,3.92.64,8.52,12.62,8.72,16.02Z"/>
        <path class="cls-6" d="M692.88,463.59c19.62,37.74,32.47,79.45,29.47,122.55-1.11,2.07-4.7,11.3-4.92,13.38s2.54,1.52,4.07,1.48c-4.04,32.99-7.55,66.06-6.47,99.39.47,14.43,2.33,28.86,3.41,43.25-.68,5.13-7.45,4.75-8.79-.06-2.21-7.93-2.86-28.03-3.24-37.06-1.49-35.42,2.71-65.84,5.74-100.64.97-11.11.95-22.35,1.87-33.46.87.12,4.14.53,4.16-.19-1.58-5.86-2.91-13.54-5.56-18.93-2.57-31.08-15.1-59.88-28.14-87.7.96-.12,7.53-1.69,8.39-2.01Z"/>
        <path class="cls-2" d="M722.35,586.14c8.46-15.74,31.28-31.17,49.63-28.22-4.89,22.11-27.57,42.43-50.48,43.07-1.53.04-4.28.54-4.07-1.48s3.8-11.31,4.92-13.38Z"/>
        <path class="cls-2" d="M712.62,553.29c2.65,5.39,3.98,13.07,5.56,18.93-.02.72-3.3.31-4.16.19-22.25-3.08-44.16-26.42-45.24-48.93,12.17.2,25.03,7.43,33.48,15.95,3.04,3.06,8.53,10.11,10.37,13.86Z"/>
      </g>
    </g>
    <path d="M416.8,705.56l-10.8,6.43,112.34-289.2c2.23-6.51,5.01-10.97,8.36-13.37,3.34-2.4,8.18-3.6,14.52-3.6h32.39c3.08,0,5.44.64,7.07,1.93,1.63,1.29,2.44,3.21,2.44,5.78,0,2.06-.82,3.86-2.44,5.4-1.63,1.54-4.07,2.66-7.33,3.34l-14.14,2.31c-6.68,1.2-11.18,3.86-13.49,7.97-2.31,4.11-3.04,11.31-2.19,21.59l20.05,275.83c.34,5.49,1.5,9.51,3.47,12.08,1.97,2.57,4.92,4.2,8.87,4.88l19.02,2.31c2.91.51,5.18,1.46,6.81,2.83,1.63,1.37,2.44,3.34,2.44,5.91,0,2.23-.77,4.07-2.31,5.53-1.54,1.46-3.95,2.18-7.2,2.18h-87.91c-3.09,0-5.44-.68-7.07-2.06-1.63-1.37-2.44-3.25-2.44-5.66,0-2.23.77-4.11,2.31-5.66,1.54-1.54,3.86-2.57,6.94-3.08l19.02-2.31c4.79-.68,8.31-2.4,10.54-5.14,2.22-2.74,3.17-6.51,2.83-11.31l-20.82-273.52,4.63-.51-101.8,262.46c-1.89,5.66-3.94,9.34-6.17,11.05-2.23,1.71-4.46,2.57-6.68,2.57-1.54,0-3-.43-4.37-1.29-1.37-.86-2.74-2.31-4.11-4.37-1.37-2.06-2.83-4.97-4.37-8.74l-103.34-267.09,5.14-5.4-19.28,282.77c-.35,5.49.34,9.68,2.06,12.6,1.71,2.92,5.05,4.8,10.03,5.66l18.25,3.08c2.91.51,5.18,1.41,6.81,2.7,1.63,1.29,2.44,3.13,2.44,5.53s-.86,4.29-2.57,5.66c-1.72,1.37-4.03,2.06-6.94,2.06h-78.66c-3.08,0-5.44-.68-7.07-2.06-1.63-1.37-2.44-3.25-2.44-5.66,0-2.23.81-4.02,2.44-5.4,1.63-1.37,4.07-2.4,7.33-3.08l18.77-2.83c4.11-.68,7.11-2.53,9-5.53,1.88-3,2.91-7.24,3.08-12.72l19.54-285.08c.51-4.45.17-8.39-1.03-11.82-1.2-3.43-3.43-5.48-6.68-6.17l-21.34-3.08c-3.08-.68-5.4-1.76-6.94-3.21-1.54-1.45-2.31-3.38-2.31-5.78,0-4.97,3.08-7.45,9.25-7.45h39.84c3.77,0,6.77.73,9,2.19,2.23,1.46,4.02,4.07,5.4,7.84l111.82,289.71Z"/>
    <path d="M420.4,419.88c-16.8,0-30.55-2.19-41.26-6.56-10.71-4.37-18.81-8.78-24.29-13.24-5.49-4.45-9.09-6.68-10.8-6.68-1.54,0-2.27,1.2-2.19,3.6.08,2.4.3,5.14.64,8.23.34,3.08.21,5.83-.39,8.23-.6,2.4-2.27,3.6-5.01,3.6-2.57,0-4.72-.86-6.43-2.57-1.71-1.71-2.92-4.11-3.6-7.2l-18.51-74.55c-.86-2.74-.81-5.18.13-7.33.94-2.14,2.7-3.38,5.27-3.73,2.23-.51,4.15-.21,5.78.9,1.63,1.12,3.04,3.3,4.24,6.56,5.31,16.11,12.29,29.61,20.95,40.49,8.65,10.88,19.28,19.11,31.88,24.68,12.6,5.57,27.29,8.35,44.09,8.35,19.54,0,35.94-5.7,49.23-17.09,13.28-11.4,20.01-26.86,20.18-46.4.17-11.83-2.1-22.83-6.81-33.03-4.72-10.19-13.8-20.18-27.25-29.95-13.46-9.77-33.12-19.79-59-30.08-21.94-8.74-39.68-18.51-53.21-29.31-13.54-10.8-23.35-22.88-29.43-36.25-6.08-13.37-9.13-28.02-9.13-43.96,0-17.31,4.11-32.9,12.34-46.79s19.54-24.81,33.93-32.78c14.4-7.97,30.85-11.95,49.36-11.95,15.42-.17,28.06,1.59,37.92,5.27,9.85,3.69,17.48,7.33,22.88,10.93,5.4,3.6,9.04,5.4,10.92,5.4,2.22,0,3.34-1.71,3.34-5.14s.39-6.72,1.16-9.9c.77-3.17,3.04-4.76,6.81-4.76,2.74,0,4.76.77,6.04,2.31,1.29,1.54,2.44,4.11,3.47,7.71l22.62,76.35c1.2,3.08,1.45,5.66.77,7.71-.69,2.06-2.23,3.6-4.63,4.63-2.23.86-4.33.77-6.3-.26-1.97-1.03-3.56-3-4.75-5.91-5.83-17.82-13.46-32.43-22.88-43.83-9.43-11.4-20.57-19.75-33.42-25.06-12.85-5.31-27.42-7.97-43.7-7.97-20.74,0-37.92,6.34-51.54,19.02-13.62,12.68-20.44,29.22-20.44,49.61,0,12.34,2.35,23.91,7.07,34.7,4.71,10.8,13.24,21.12,25.58,30.98,12.34,9.86,29.9,19.41,52.7,28.66,24.85,10.46,44.6,21,59.25,31.62,14.65,10.63,25.02,22.2,31.1,34.7,6.08,12.51,9.04,26.99,8.87,43.44,0,16.8-3.94,31.53-11.83,44.21-7.88,12.68-18.81,22.58-32.78,29.69-13.97,7.11-30.29,10.67-48.97,10.67Z"/>
  </g>
</svg>