<?xml version="1.0" encoding="UTF-8"?>
<svg id="Layer_2" data-name="Layer 2" xmlns="http://www.w3.org/2000/svg" viewBox="0 0 468.92 559.47">
  <defs>
    <style>
      .cls-1 {
        fill: #fff;
      }
    </style>
  </defs>
  <g id="Layer_1-2" data-name="Layer 1">
    <path class="cls-1" d="M404.91,0L64,1.55C28.65,1.55,0,30.21,0,65.55v158.54c.43-.09.84-.32,1.15-.75L140.26,25.94c1.31-1.86,3.45-2.97,5.73-2.97h120.83c5.77,0,9.07,6.59,5.61,11.21l-143.56,191.9c-1.9,2.54-2.07,5.97-.45,8.68l175.31,292.68c2.8,4.67-.57,10.61-6.01,10.61h-122.04c-2.51,0-4.83-1.34-6.08-3.52l-111.45-194.12c-2.82-4.91-9.76-5.28-13.08-.7L0,401.77v93.7c0,35.35,28.65,64,64,64l340.91-1.55c35.35,0,64-28.65,64-64V64c0-35.35-28.66-64-64-64ZM367.15,538.05h-17.42v-70.89h17.42v70.89ZM433.68,481.75h-19.16v56.3h-17.31v-56.3h-19.27v-14.59h55.75v14.59Z"/>
  </g>
</svg>