<?xml version="1.0" encoding="UTF-8"?>
<svg id="Layer_2" data-name="Layer 2" xmlns="http://www.w3.org/2000/svg" viewBox="0 0 1198.75 306.51">
  <g id="Layer_1-2" data-name="Layer 1">
    <g>
      <path fill="#F3E7D8" d="M1163.59,0H35.16C15.74,0,0,15.74,0,35.16v236.19c0,19.42,15.74,35.16,35.16,35.16h437.18v-139.32h32.31l2.72,11.79h1.36c7.02-4.08,14.85-7.52,23.46-10.32,8.61-2.79,17.57-4.19,26.87-4.19,13.83,0,25.62,2.34,35.37,7.03,9.75,4.69,17.23,11.26,22.44,19.72,5.21,8.47,7.82,18.44,7.82,29.93,0,12.7-3.4,23.5-10.2,32.42-6.8,8.92-15.59,15.76-26.36,20.52-10.77,4.76-22.39,7.14-34.86,7.14-7.26,0-14.51-1.06-21.76-3.17-7.26-2.12-14.28-5.14-21.08-9.07l1.02,18.59v18.93h135.69v-139.32h32.31l2.72,11.79h1.36c7.02-4.08,14.85-7.52,23.46-10.32,8.61-2.79,17.57-4.19,26.87-4.19,13.83,0,25.62,2.34,35.37,7.03,9.75,4.69,17.23,11.26,22.44,19.72,5.21,8.47,7.82,18.44,7.82,29.93,0,12.7-3.4,23.5-10.2,32.42-6.8,8.92-15.59,15.76-26.36,20.52-10.77,4.76-22.39,7.14-34.86,7.14-7.26,0-14.51-1.06-21.76-3.17-7.26-2.12-14.28-5.14-21.08-9.07l1.02,18.59v18.93h477.34c19.42,0,35.16-15.74,35.16-35.16V35.16c0-19.42-15.74-35.16-35.16-35.16ZM226.2,278.51h-59.35c-1.22,0-2.35-.65-2.96-1.71l-54.21-94.41c-1.37-2.39-4.74-2.57-6.36-.34l-22.38,30.82c-.47.65-.72,1.43-.72,2.23v60.01c0,1.88-1.53,3.41-3.41,3.41H22.05c-1.88,0-3.41-1.53-3.41-3.41V31.41c0-1.88,1.53-3.41,3.41-3.41h54.75c1.88,0,3.41,1.53,3.41,3.41l.06,93.51c0,.9,1.16,1.27,1.68.53L149.62,29.44c.64-.91,1.68-1.45,2.79-1.45h58.77c2.81,0,4.41,3.2,2.73,5.45l-69.82,93.33c-.92,1.23-1.01,2.9-.22,4.22l85.26,142.35c1.36,2.27-.28,5.16-2.92,5.16ZM291.93,280.1c-3.52.45-7.54.68-12.07.68-9.3,0-16.72-1.25-22.28-3.74-5.56-2.49-9.58-6.08-12.07-10.77-2.5-4.68-3.74-10.28-3.74-16.78V118.45h39.11v132.4c0,3.33.9,5.59,2.72,6.8,1.81,1.21,3.85,1.81,6.12,1.81.9,0,1.75-.04,2.55-.11.79-.07,1.87-.19,3.23-.34l5.1,19.5c-2.27.6-5.16,1.13-8.67,1.59ZM451.43,224.33c-.34,2.27-.85,4.46-1.53,6.57h-104.65c1,5.14,3,9.58,6.03,13.26,4.53,5.52,10.54,9.6,18.02,12.24,7.48,2.65,15.53,3.97,24.15,3.97,7.25,0,14.11-.68,20.58-2.04,6.46-1.36,12.52-3.25,18.19-5.67l13.6,16.78c-7.71,3.63-16.49,6.5-26.36,8.62-9.86,2.11-20.12,3.17-30.78,3.17-15.64,0-29.76-2.31-42.34-6.92s-22.5-11.26-29.76-19.95c-7.26-8.69-10.88-19.23-10.88-31.63s3.74-22.48,11.22-31.17c7.48-8.69,17.12-15.38,28.91-20.06,11.79-4.68,24.26-7.03,37.41-7.03,15.19,0,27.89,2.27,38.09,6.8,10.2,4.53,17.85,10.77,22.96,18.7,5.1,7.94,7.65,17.04,7.65,27.32,0,2.42-.17,4.76-.51,7.03ZM946.41,278.51h-32.31l-2.72-12.24h-1.36c-7.71,4.23-15.76,7.79-24.15,10.66-8.39,2.87-17.57,4.31-27.55,4.31s-18.36-1.36-25.85-4.08-13.32-6.54-17.51-11.45c-4.2-4.91-6.29-10.62-6.29-17.12,0-12.54,7.88-22.03,23.64-28.45,15.75-6.42,40.75-10.84,74.99-13.26-.23-3.78-1.31-7.25-3.23-10.43-1.93-3.17-5.1-5.7-9.52-7.6-4.42-1.89-10.37-2.83-17.85-2.83-8.16,0-16.15.99-23.98,2.95-7.82,1.97-15.47,4.46-22.96,7.48l-14.28-17.68c6.12-2.57,12.81-4.95,20.06-7.14,7.25-2.19,14.96-3.93,23.13-5.21,8.16-1.28,16.66-1.93,25.51-1.93,13.83,0,25.34,1.85,34.52,5.55,9.18,3.71,16.1,9.15,20.75,16.32,4.64,7.18,6.97,15.98,6.97,26.41v65.75ZM1118.83,278.51h-39.11v-66.43c0-9.22-2.04-15.72-6.12-19.5-4.08-3.78-10.77-5.67-20.06-5.67-7.26,0-13.66,1.17-19.21,3.51-5.56,2.35-11.85,5.78-18.88,10.32v77.76h-39.11v-111.32h32.31l2.72,14.96h1.36c7.48-4.84,15.64-8.99,24.49-12.47,8.84-3.47,18.93-5.21,30.27-5.21,17.91,0,30.95,3.85,39.11,11.56,8.16,7.71,12.24,18.59,12.24,32.65v69.83ZM1150.48,278.51h-8.47v-34.48h8.47v34.48ZM1182.84,251.13h-9.32v27.38h-8.42v-27.38h-9.37v-7.1h27.11v7.1Z"/>
      <path fill="#F3E7D8" d="M852.38,236.91c-3.74,2.8-5.61,6.09-5.61,9.86,0,4.69,2.26,8.05,6.8,10.09,4.53,2.04,10.2,3.06,17,3.06s13.09-.94,18.88-2.83c5.78-1.89,11.73-4.72,17.85-8.5v-23.58c-15.19,1.21-27.21,2.8-36.05,4.76-8.84,1.97-15.13,4.35-18.88,7.14Z"/>
      <path fill="#F3E7D8" d="M409.09,192.02c-5.44-4.61-13.83-6.92-25.17-6.92-6.35,0-12.53,1.13-18.53,3.4-6.01,2.27-11,6.12-14.96,11.56-2.18,2.98-3.73,6.63-4.72,10.88h71.54c0-8.01-2.72-14.32-8.16-18.93Z"/>
      <path fill="#F3E7D8" d="M565.18,255.39c5.89-2.87,10.54-7.14,13.94-12.81,3.4-5.67,5.1-12.73,5.1-21.2,0-7.4-1.25-13.75-3.74-19.04-2.5-5.29-6.41-9.33-11.73-12.13-5.33-2.79-12.19-4.19-20.57-4.19-6.12,0-12.13,1.02-18.02,3.06-5.9,2.04-12.13,5.18-18.71,9.41v51.92c6.12,3.33,12.07,5.71,17.85,7.14,5.78,1.44,11.05,2.15,15.81,2.15,7.48,0,14.17-1.44,20.07-4.31Z"/>
      <path fill="#F3E7D8" d="M739.98,255.39c5.89-2.87,10.54-7.14,13.94-12.81,3.4-5.67,5.1-12.73,5.1-21.2,0-7.4-1.25-13.75-3.74-19.04-2.5-5.29-6.41-9.33-11.73-12.13-5.33-2.79-12.19-4.19-20.57-4.19-6.12,0-12.13,1.02-18.02,3.06-5.9,2.04-12.13,5.18-18.71,9.41v51.92c6.12,3.33,12.07,5.71,17.85,7.14,5.78,1.44,11.05,2.15,15.81,2.15,7.48,0,14.17-1.44,20.07-4.31Z"/>
    </g>
  </g>
</svg>